<svg width="36" height="36" viewBox="0 0 36 36" fill="none" xmlns="http://www.w3.org/2000/svg">
  <rect width="36" height="36" rx="9" fill="#1E3A5F"/>
  <line x1="18" y1="10" x2="18" y2="26" stroke="#D4A853" stroke-width="1.4" stroke-linecap="round"/>
  <line x1="10" y1="13" x2="26" y2="13" stroke="#D4A853" stroke-width="1.4" stroke-linecap="round"/>
  <path d="M10 13 Q8 17 10 19 Q12 21 14 19 Q16 17 14 13" stroke="#D4A853" stroke-width="1.2" fill="none" stroke-linecap="round"/>
  <path d="M22 13 Q20 17 22 19 Q24 21 26 19 Q28 17 26 13" stroke="#D4A853" stroke-width="1.2" fill="none" stroke-linecap="round"/>
  <path d="M11 27 Q14 25.5 18 27 Q22 28.5 25 27" stroke="#2D7D46" stroke-width="1.3" fill="none" stroke-linecap="round"/>
  <path d="M13 29.5 Q16 28 18 29.5 Q20 31 23 29.5" stroke="#2D7D46" stroke-width="1" fill="none" stroke-linecap="round" opacity="0.6"/>
</svg>
